<?xml version="1.0" encoding="UTF-8"?>
<svg version="1.1" xmlns="http://www.w3.org/2000/svg" width="400" height="400">
<path d="M0 0 C132 0 264 0 400 0 C400 132 400 264 400 400 C268 400 136 400 0 400 C0 268 0 136 0 0 Z " fill="#FEFEFE" transform="translate(0,0)"/>
<path d="M0 0 C5.0888645 3.50078782 8.34057315 7.6871856 10.265625 13.55859375 C10.85241201 19.48686842 10.65599229 25.03086938 8.265625 30.55859375 C7.605625 30.55859375 6.945625 30.55859375 6.265625 30.55859375 C5.9871875 31.61046875 5.9871875 31.61046875 5.703125 32.68359375 C3.7332277 36.62338835 0.84320449 39.04074271 -2.734375 41.55859375 C-9.28833476 43.743247 -17.55458772 43.5426873 -23.921875 40.73046875 C-29.68465845 37.00453117 -33.88213441 31.09591348 -35.734375 24.55859375 C-36.58257727 17.66814163 -36.50182314 12.02081157 -32.2890625 6.30859375 C-23.27179122 -3.84150055 -12.2478476 -6.79794057 0 0 Z " fill="#070707" transform="translate(212.734375,180.44140625)"/>
<path d="M0 0 C6.48029043 4.26513868 10.65463599 9.36234546 13.10546875 16.71484375 C13.86670252 23.74065707 12.92300688 28.7823629 9.10546875 34.71484375 C8.54859375 35.60171875 7.99171875 36.48859375 7.41796875 37.40234375 C2.33637738 42.48393512 -2.71624665 45.02103279 -9.95703125 45.27734375 C-17.31076195 44.92227162 -22.21903363 42.81718713 -27.20703125 37.40234375 C-32.28206754 30.8753216 -33.77737866 24.83959888 -32.89453125 16.71484375 C-31.7749715 10.1299063 -28.19573259 6.64818237 -23.24609375 2.37890625 C-16.50956096 -2.38814187 -7.59879516 -3.37382403 0 0 Z " fill="#070707" transform="translate(209.89453125,109.28515625)"/>
<path d="M0 0 C1.19367188 -0.01417969 2.38734375 -0.02835937 3.6171875 -0.04296875 C7.12424022 0.18745008 9.86070089 0.92470539 13.125 2.1875 C13.125 2.8475 13.125 3.5075 13.125 4.1875 C13.681875 4.373125 14.23875 4.55875 14.8125 4.75 C18.56838638 7.08474018 21.35103349 10.84110785 22.7421875 15.05859375 C23.96087749 21.83600236 24.3241259 28.1741409 20.5 34.125 C16.31841602 39.54339051 12.02810208 43.72722841 5.125 45.1875 C-2.05069325 45.86399633 -8.77133322 45.42576766 -14.59765625 40.828125 C-20.1314058 35.55270773 -22.92577754 30.21913817 -23.25 22.5625 C-23.16018112 15.79614447 -20.66625692 10.25912871 -16.125 5.26171875 C-10.89465396 0.5386261 -7.03064806 0.03779918 0 0 Z " fill="#070707" transform="translate(130.875,108.8125)"/>
<path d="M0 0 C4.29846345 2.41149931 6.84132795 4.82602248 9.625 8.875 C10.15351563 9.64199219 10.68203125 10.40898437 11.2265625 11.19921875 C13.68114695 15.89583984 13.23519703 20.71179433 12.625 25.875 C11.67274125 28.85386072 10.35714672 31.28283637 8.625 33.875 C8.08875 34.761875 7.5525 35.64875 7 36.5625 C2.39546864 41.04585948 -2.97484608 43.53212087 -9.3125 44.4375 C-15.60941036 43.92762872 -21.90235722 42.20193348 -26.5625 37.81640625 C-31.70938637 31.45785704 -33.94719236 25.66065115 -33.75 17.46484375 C-32.73844915 10.47882066 -28.51098683 5.44747966 -23.21875 1.06640625 C-15.98625658 -3.60713293 -7.69527436 -3.57732485 0 0 Z " fill="#070707" transform="translate(141.375,179.125)"/>
<path d="M0 0 C4.87354248 3.57393115 9.39600144 8.24795573 11.625 13.9375 C12.29299454 20.65214644 12.649897 27.24712837 8.625 32.9375 C7.903125 33.96875 7.18125 35 6.4375 36.0625 C2.39837077 40.5768209 -1.68861068 42.63030496 -7.72265625 43.3203125 C-14.54732175 43.53928572 -21.02217081 43.61811343 -26.375 38.9375 C-31.55880483 32.7076359 -34.86142921 26.45162842 -34.6171875 18.26953125 C-33.9217205 11.57285708 -31.26894885 6.93682208 -26.3125 2.4140625 C-19.09067655 -3.08966586 -8.03134644 -4.66187351 0 0 Z " fill="#070707" transform="translate(142.375,248.0625)"/>
<path d="M0 0 C5.69047681 3.68351294 9.10532398 8.68658244 10.81640625 15.17578125 C11.62493307 22.83798306 11.70398418 29.03497821 6.81640625 35.17578125 C1.25284852 40.84710765 -3.95708164 44.28951091 -12.05859375 44.67578125 C-19.06270335 44.47640684 -22.97352037 42.25687846 -27.93359375 37.49609375 C-33.470637 31.50650369 -34.62164883 25.89301473 -34.42578125 17.8515625 C-33.74814017 10.36472157 -29.70899896 5.80420509 -24.18359375 1.17578125 C-17.54927603 -3.60709897 -7.36546129 -3.24449339 0 0 Z " fill="#060606" transform="translate(280.18359375,178.82421875)"/>
<path d="M0 0 C5.77654998 3.19708426 10.30476207 7.73202951 12.75 13.9375 C13.74288171 21.40607922 13.96919974 28.19021406 9.625 34.625 C5.72103644 39.37285063 1.90787414 42.72575375 -4.25 43.9375 C-11.58965269 44.57709831 -18.2871308 44.70247137 -24.25 39.9375 C-30.57684917 33.29995734 -32.76023216 26.79163153 -32.5625 17.68359375 C-31.83857572 11.32210917 -28.53049169 6.45574302 -23.87109375 2.19140625 C-16.60235488 -3.43091948 -8.14076861 -3.70925246 0 0 Z " fill="#070707" transform="translate(278.25,110.0625)"/>
<path d="M0 0 C3.21510967 3.13473193 4.49074056 5.54397988 5 10 C5.66 10 6.32 10 7 10 C8.75430778 15.26292335 8.77961315 20.53003129 8 26 C4.88875269 32.09103346 -0.33250038 37.57461717 -6.75390625 40.0703125 C-12.74470071 41.78608757 -19.52141541 42.29474474 -25.4453125 40.08984375 C-30.76039182 36.94727784 -34.64268145 32.84390553 -37.3125 27.25 C-39.05543396 19.01067582 -38.57776807 11.26128728 -34 4 C-24.70469736 -5.38058065 -11.40781327 -7.44408154 0 0 Z " fill="#070707" transform="translate(215,250)"/>
<path d="M0 0 C5.77081783 3.34707434 11.10854902 7.19672824 13.125 13.8125 C13.94450961 20.83686808 14.21453595 27.91446174 10.46484375 34.1328125 C7.15791376 38.27852648 3.0927655 41.85577222 -1.875 43.8125 C-8.91818608 44.52986155 -16.76153845 44.84792089 -22.875 40.8125 C-28.15652731 36.06541296 -31.48658738 31.48064433 -32.0859375 24.27734375 C-32.33694626 17.25875269 -31.95802781 11.1891495 -27.0703125 5.8359375 C-19.50378747 -1.10242319 -10.0018108 -3.92928281 0 0 Z " fill="#050505" transform="translate(277.875,247.1875)"/>
<path d="M0 0 C2.97387455 4.46081182 2.38766968 8.76645926 2 14 C1 17.6875 1 17.6875 0 20 C-1.32 19.34 -2.64 18.68 -4 18 C-3.67 16.02 -3.34 14.04 -3 12 C-2.01 11.67 -1.02 11.34 0 11 C0 7.37 0 3.74 0 0 Z " fill="#323232" transform="translate(221,191)"/>
<path d="M0 0 C0.66 0 1.32 0 2 0 C2 0.66 2 1.32 2 2 C2.5775 2.226875 3.155 2.45375 3.75 2.6875 C6.5663661 4.33038023 8.08077114 6.39533227 10 9 C9.67 9.66 9.34 10.32 9 11 C6.83125748 10.49396008 5.00032373 10.00016187 3 9 C3 8.01 3 7.02 3 6 C2.04788888 3.97676387 1.05226728 1.97300116 0 0 Z " fill="#292929" transform="translate(142,111)"/>
<path d="M0 0 C-0.66 0.66 -1.32 1.32 -2 2 C-2.66 2 -3.32 2 -4 2 C-4 2.66 -4 3.32 -4 4 C-7 5 -7 5 -9 5 C-10.62514468 6.45833358 -10.62514468 6.45833358 -12 8 C-12.66 7.67 -13.32 7.34 -14 7 C-12.71064081 5.85157077 -11.41843421 4.70633773 -10.125 3.5625 C-9.04605469 2.60537109 -9.04605469 2.60537109 -7.9453125 1.62890625 C-4.87967011 -0.93810756 -3.75777555 -1.12733266 0 0 Z " fill="#272727" transform="translate(126,248)"/>
<path d="M0 0 C0.66 0.33 1.32 0.66 2 1 C1.07038578 2.15224028 0.1309875 3.29659176 -0.8125 4.4375 C-1.59560547 5.39462891 -1.59560547 5.39462891 -2.39453125 6.37109375 C-4 8 -4 8 -7 9 C-7 9.66 -7 10.32 -7 11 C-7.66 11 -8.32 11 -9 11 C-7.59928507 5.70841026 -4.14512755 3.22521956 0 0 Z " fill="#3D3D3D" transform="translate(257,248)"/>
<path d="M0 0 C0.66 0.33 1.32 0.66 2 1 C2.59355614 3.64860427 2.74209269 6.29197322 3 9 C2.01 9.495 2.01 9.495 1 10 C-2 6.375 -2 6.375 -2 3 C-1.34 3 -0.68 3 0 3 C0 2.01 0 1.02 0 0 Z " fill="#131313" transform="translate(219,188)"/>
<path d="M0 0 C0.66 0.33 1.32 0.66 2 1 C1.360625 1.78375 0.72125 2.5675 0.0625 3.375 C-1.98142313 5.79539281 -1.98142313 5.79539281 -3 8 C-3.98020375 9.0194119 -4.97803008 10.02246356 -6 11 C-6.66 10.67 -7.32 10.34 -8 10 C-5.61820737 6.25718301 -3.25524265 3.02272532 0 0 Z " fill="#333333" transform="translate(118,180)"/>
<path d="M0 0 C0.66 0.33 1.32 0.66 2 1 C1.278125 1.70125 0.55625 2.4025 -0.1875 3.125 C-2.99823813 5.92770745 -5.49516226 8.92262792 -8 12 C-8 8.24111186 -7.049166 7.58681685 -4.5625 4.875 C-3.92441406 4.17117187 -3.28632813 3.46734375 -2.62890625 2.7421875 C-1.76410115 1.81724008 -0.89538137 0.89538137 0 0 Z " fill="#2E2E2E" transform="translate(256,180)"/>
<path d="M0 0 C2 2 2 2 2.125 4.625 C2.08375 5.40875 2.0425 6.1925 2 7 C0.02 7.66 -1.96 8.32 -4 9 C-2.68 6.03 -1.36 3.06 0 0 Z " fill="#DBDBDB" transform="translate(290,275)"/>
<path d="M0 0 C0.33 0 0.66 0 1 0 C1.33 3.63 1.66 7.26 2 11 C2.66 11 3.32 11 4 11 C3.67 12.32 3.34 13.64 3 15 C0.57418129 12.57418129 0.03644336 10.92566131 -0.09765625 7.51953125 C-0.08605469 6.62621094 -0.07445312 5.73289063 -0.0625 4.8125 C-0.05347656 3.91144531 -0.04445312 3.01039063 -0.03515625 2.08203125 C-0.02355469 1.39496094 -0.01195312 0.70789063 0 0 Z " fill="#252525" transform="translate(177,126)"/>
<path d="M0 0 C1.98 0.495 1.98 0.495 4 1 C4 1.99 4 2.98 4 4 C4.66 4.33 5.32 4.66 6 5 C5.67 5.66 5.34 6.32 5 7 C3.02 5.35 1.04 3.7 -1 2 C-0.67 1.34 -0.34 0.68 0 0 Z " fill="#1C1C1C" transform="translate(184,145)"/>
<path d="M0 0 C0.66 0.66 1.32 1.32 2 2 C0.35 3.32 -1.3 4.64 -3 6 C-3.33 4.68 -3.66 3.36 -4 2 C-2.68 1.34 -1.36 0.68 0 0 Z " fill="#0E0E0E" transform="translate(283,214)"/>
<path d="M0 0 C0.66 0.99 1.32 1.98 2 3 C0.35 4.65 -1.3 6.3 -3 8 C-3.66 7.67 -4.32 7.34 -5 7 C-3.35 4.69 -1.7 2.38 0 0 Z " fill="#C8C8C8" transform="translate(151,210)"/>
</svg>
